<svg width="18" height="18" viewBox="0 0 18 18" fill="none" xmlns="http://www.w3.org/2000/svg">
<path d="M12.9375 2.25H11.8125V1.125C12.1231 1.125 12.375 0.873141 12.375 0.5625C12.375 0.251859 12.1231 0 11.8125 0C11.0099 0 6.99202 0 6.1875 0C5.87686 0 5.625 0.251859 5.625 0.5625C5.625 0.873141 5.87686 1.125 6.1875 1.125V2.25H5.0625C3.82184 2.25 2.8125 3.25934 2.8125 4.5V14.625C2.8125 15.8657 3.82184 16.875 5.0625 16.875H5.34375V17.4375C5.34375 17.7481 5.59561 18 5.90625 18C6.21689 18 6.46875 17.7481 6.46875 17.4375V16.875H11.5312V17.4375C11.5312 17.7481 11.7831 18 12.0938 18C12.4044 18 12.6562 17.7481 12.6562 17.4375V16.875H12.9375C14.1782 16.875 15.1875 15.8657 15.1875 14.625V4.5C15.1875 3.25934 14.1782 2.25 12.9375 2.25ZM7.3125 1.125H10.6875V2.25H7.3125V1.125ZM14.0625 14.625C14.0625 15.2453 13.5578 15.75 12.9375 15.75H5.0625C4.44217 15.75 3.9375 15.2453 3.9375 14.625V4.5C3.9375 3.87967 4.44217 3.375 5.0625 3.375H12.9375C13.5578 3.375 14.0625 3.87967 14.0625 4.5V14.625Z" fill="#1E2328" fill-opacity="0.6"/>
<path d="M9 6C8.68936 6 8.4375 6.18437 8.4375 6.41176V12.5882C8.4375 12.8156 8.68936 13 9 13C9.31064 13 9.5625 12.8156 9.5625 12.5882V6.41176C9.5625 6.18437 9.31064 6 9 6Z" fill="#1E2328" fill-opacity="0.6"/>
<path d="M11.8125 6C11.5019 6 11.25 6.18437 11.25 6.41176V12.5882C11.25 12.8156 11.5019 13 11.8125 13C12.1231 13 12.375 12.8156 12.375 12.5882V6.41176C12.375 6.18437 12.1231 6 11.8125 6Z" fill="#1E2328" fill-opacity="0.6"/>
<path d="M6.1875 6C5.87686 6 5.625 6.18437 5.625 6.41176V12.5882C5.625 12.8156 5.87686 13 6.1875 13C6.49814 13 6.75 12.8156 6.75 12.5882V6.41176C6.75 6.18437 6.49814 6 6.1875 6Z" fill="#1E2328" fill-opacity="0.6"/>
</svg>
