<svg width="18" height="18" viewBox="0 0 18 18" fill="none" xmlns="http://www.w3.org/2000/svg">
<path d="M11.5625 14.9375C11.5625 15.2469 11.3094 15.5 11 15.5H4.25C3.00688 15.5 2 14.4931 2 13.25V4.25C2 3.00688 3.00688 2 4.25 2H12.125C13.3681 2 14.375 3.00688 14.375 4.25V8.1875C14.375 8.49687 14.1219 8.75 13.8125 8.75C13.5031 8.75 13.25 8.49687 13.25 8.1875V4.25C13.25 3.63125 12.7437 3.125 12.125 3.125H4.25C3.63125 3.125 3.125 3.63125 3.125 4.25V13.25C3.125 13.8687 3.63125 14.375 4.25 14.375H11C11.3094 14.375 11.5625 14.6281 11.5625 14.9375ZM5.375 5.9375H10.9831C11.2925 5.9375 11.5456 5.68438 11.5456 5.375C11.5456 5.06562 11.2925 4.8125 10.9831 4.8125H5.375C5.06562 4.8125 4.8125 5.06562 4.8125 5.375C4.8125 5.68438 5.06562 5.9375 5.375 5.9375ZM11.5625 8.1875C11.5625 7.87813 11.3094 7.625 11 7.625H5.375C5.06562 7.625 4.8125 7.87813 4.8125 8.1875C4.8125 8.49687 5.06562 8.75 5.375 8.75H11C11.3094 8.75 11.5625 8.49687 11.5625 8.1875ZM5.375 10.4375C5.06562 10.4375 4.8125 10.6906 4.8125 11C4.8125 11.3094 5.06562 11.5625 5.375 11.5625H8.75C9.05937 11.5625 9.3125 11.3094 9.3125 11C9.3125 10.6906 9.05937 10.4375 8.75 10.4375H5.375ZM15.8487 12.0913H14.3694V10.6119C14.3694 10.3025 14.1163 10.0494 13.8069 10.0494C13.4975 10.0494 13.2444 10.3025 13.2444 10.6119V12.0913H11.765C11.4556 12.0913 11.2025 12.3444 11.2025 12.6538C11.2025 12.9631 11.4556 13.2163 11.765 13.2163H13.2444V14.6956C13.2444 15.005 13.4975 15.2581 13.8069 15.2581C14.1163 15.2581 14.3694 15.005 14.3694 14.6956V13.2163H15.8487C16.1581 13.2163 16.4112 12.9631 16.4112 12.6538C16.4112 12.3444 16.1581 12.0913 15.8487 12.0913Z" fill="#1E2328" fill-opacity="0.6"/>
</svg>
