<svg width="18" height="18" viewBox="0 0 18 18" fill="none" xmlns="http://www.w3.org/2000/svg">
<path d="M6.36 17.625H4.89C4.6845 17.625 4.49287 17.544 4.35037 17.3962C4.2075 17.2485 4.13287 17.0531 4.14 16.8469L4.464 8.01825C3.35288 7.55625 2.625 6.47775 2.625 5.25C2.625 3.26212 3.79387 0.375 5.625 0.375C7.45612 0.375 8.625 3.26212 8.625 5.25C8.625 6.47775 7.89713 7.55625 6.786 8.01825L7.11 16.8465C7.11712 17.0535 7.0425 17.2489 6.89962 17.3966C6.75712 17.5444 6.5655 17.625 6.36 17.625ZM5.625 1.125C4.46625 1.125 3.375 3.44887 3.375 5.25C3.375 6.2445 4.01175 7.10887 4.959 7.40025C5.12138 7.45012 5.22975 7.60275 5.22375 7.77225L4.89 16.8735L6.36 16.8746L6.02625 7.77225C6.01987 7.60275 6.12862 7.45012 6.291 7.40025C7.23825 7.10887 7.875 6.2445 7.875 5.25C7.875 3.44887 6.78375 1.125 5.625 1.125Z" fill="#1E2328" fill-opacity="0.6"/>
<path d="M4.09003 16.845L4.09003 16.8451C4.08244 17.0648 4.16205 17.2734 4.31443 17.431C4.4664 17.5886 4.67102 17.675 4.89 17.675H6.36C6.57891 17.675 6.78355 17.589 6.93557 17.4314C7.08797 17.2738 7.16756 17.0652 7.15997 16.8448L7.15997 16.8447L6.83723 8.05089C7.94894 7.57385 8.675 6.48612 8.675 5.25C8.675 4.24783 8.38075 3.02095 7.85572 2.04339C7.33204 1.06833 6.56907 0.325 5.625 0.325C4.68093 0.325 3.91796 1.06833 3.39428 2.04339C2.86925 3.02095 2.575 4.24783 2.575 5.25C2.575 6.48612 3.30106 7.57385 4.41277 8.05089L4.09003 16.845ZM5.27372 7.77408L5.27372 7.77402L6.291 7.40025C6.12862 7.45012 6.01987 7.60275 6.02625 7.77225L5.97628 7.77408L5.97629 7.77413L6.30813 16.8246L4.94187 16.8235L5.27372 7.77408ZM7.825 5.25C7.825 6.22265 7.20248 7.06756 6.27632 7.35245L4.959 7.40025L4.9737 7.35246C4.97369 7.35246 4.97369 7.35245 4.97368 7.35245C4.04752 7.06756 3.425 6.22265 3.425 5.25C3.425 4.35819 3.69553 3.33478 4.10986 2.53508C4.31697 2.13534 4.55883 1.79382 4.81859 1.55291C5.07865 1.31172 5.35253 1.175 5.625 1.175C5.89747 1.175 6.17135 1.31172 6.43141 1.55291C6.69117 1.79382 6.93303 2.13534 7.14014 2.53508C7.55447 3.33478 7.825 4.35819 7.825 5.25Z" stroke="#1E2328" stroke-opacity="0.6" stroke-width="0.1"/>
<path d="M12.0154 0.749748L13.4854 0.749748C13.6909 0.749748 13.8825 0.831123 14.0246 0.978498C14.1675 1.12662 14.2421 1.32162 14.235 1.52787L13.9069 10.3936C14.1604 10.5174 14.3981 10.6876 14.6051 10.8942C15.1013 11.3859 15.375 12.0451 15.375 12.7497C15.375 13.013 15.3634 13.2691 15.3398 13.5331L14.9985 17.2835C14.9798 17.4894 14.8013 17.639 14.5909 17.6229C14.3846 17.6041 14.2327 17.4215 14.2515 17.2152L14.5928 13.4652C14.6145 13.2241 14.625 12.9897 14.625 12.7494C14.625 12.2465 14.43 11.7762 14.076 11.4256C13.8776 11.2272 13.6436 11.0776 13.3988 10.9921C13.2435 10.9377 13.1415 10.7889 13.1479 10.6242L13.4854 1.5005L12.0154 1.49937L12.3525 10.6242C12.3585 10.7885 12.2569 10.9377 12.1016 10.9921C11.8568 11.078 11.6227 11.2272 11.4255 11.4245C11.0704 11.7762 10.8754 12.2465 10.8754 12.7494C10.8754 12.9897 10.8859 13.2241 10.9076 13.466L11.2489 17.2156C11.2676 17.4219 11.1157 17.6045 10.9095 17.6232C10.7036 17.639 10.5206 17.4897 10.5019 17.2839L10.1606 13.5339C10.137 13.2691 10.1254 13.013 10.1254 12.7497C10.1254 12.0455 10.3991 11.3859 10.8964 10.8931C11.1026 10.6872 11.3404 10.5174 11.5935 10.3932L11.2654 1.52825C11.2583 1.32125 11.3329 1.12587 11.4758 0.978124C11.6179 0.830749 11.8095 0.749374 12.015 0.749374L12.0154 0.749748Z" fill="#1E2328" fill-opacity="0.6"/>
<path d="M14.285 1.5296L14.285 1.52972L13.958 10.3632C14.2056 10.4881 14.4376 10.6564 14.6404 10.8588C15.146 11.3599 15.425 12.0319 15.425 12.7497C15.425 13.0145 15.4133 13.2721 15.3896 13.5376L15.3895 13.5377L15.0483 17.288L15.0483 17.288C15.027 17.5217 14.8241 17.6909 14.5871 17.6727L14.5863 17.6727L14.5863 17.6727C14.3525 17.6514 14.1805 17.4444 14.2017 17.2107L14.2017 17.2107L14.543 13.4608L14.285 1.5296ZM14.285 1.5296C14.2926 1.30987 14.2129 1.1017 14.0606 0.94379C13.909 0.786619 13.7044 0.699749 13.4854 0.699749L12.036 0.699749L12.0357 0.699375L12.015 0.699375C11.796 0.699375 11.5914 0.786226 11.4398 0.943367C11.2874 1.10097 11.2078 1.30955 11.2154 1.52997L11.2154 1.5301L11.5423 10.3629C11.2952 10.488 11.0633 10.6559 10.8612 10.8576C10.3544 11.3598 10.0754 12.0323 10.0754 12.7497C10.0754 13.0145 10.0871 13.2721 10.1108 13.5383L10.1108 13.5384L10.4521 17.2884L10.4521 17.2884C10.4734 17.5225 10.6812 17.6909 10.9133 17.6731L10.914 17.673C11.1478 17.6518 11.3199 17.4448 11.2987 17.2111L11.2987 17.2111L10.9574 13.4615L14.285 1.5296ZM12.0673 1.54941L13.4335 1.55046L13.0979 10.6223C13.0979 10.6223 13.0979 10.6224 13.0979 10.6224L13.0979 10.6224L12.0673 1.54941ZM12.0673 1.54941L12.4025 10.6224L12.4025 10.6224C12.4093 10.8085 12.2941 10.9777 12.1182 11.0393M12.0673 1.54941L10.9574 13.4615C10.9358 13.2211 10.9254 12.9882 10.9254 12.7494C10.9254 12.2597 11.1151 11.8023 11.4607 11.46L11.4609 11.4599C11.6532 11.2676 11.8808 11.1225 12.1182 11.0393M12.1182 11.0393L12.1016 10.9921L12.1182 11.0393C12.1182 11.0393 12.1182 11.0393 12.1182 11.0393Z" stroke="#1E2328" stroke-opacity="0.6" stroke-width="0.1"/>
<path d="M12.0003 13.1247C12.2031 13.1247 12.37 13.2864 12.3749 13.4904L12.4686 17.2404C12.4739 17.4474 12.3104 17.6195 12.103 17.6244C11.896 17.6401 11.7239 17.4661 11.719 17.2587L11.6253 13.5087C11.62 13.3017 11.7835 13.1296 11.9909 13.1247C11.9939 13.1247 11.9973 13.1247 12.0003 13.1247Z" fill="#1E2328" fill-opacity="0.6"/>
<path d="M11.9909 13.0747L11.9909 13.0747L11.669 17.2599L11.719 17.2587L11.669 17.26L11.669 17.26C11.6745 17.4921 11.8673 17.6917 12.1055 17.6743C12.3399 17.6681 12.5245 17.4733 12.5186 17.2391C12.5186 17.2391 12.5186 17.2391 12.5186 17.2391L12.4249 13.4892L12.3749 13.4904L12.4249 13.4891L12.4249 13.4891C12.4193 13.2579 12.2301 13.0747 12.0003 13.0747L12.0002 13.0747L12.0002 13.0747L12.0002 13.0747L12.0002 13.0747L12.0002 13.0747L12.0001 13.0747L12.0001 13.0747L12.0001 13.0747L12.0001 13.0747L12.0001 13.0747L12.0001 13.0747L12 13.0747L12 13.0747L12 13.0747L12 13.0747L12 13.0747L12 13.0747L11.9999 13.0747L11.9999 13.0747L11.9999 13.0747L11.9999 13.0747L11.9999 13.0747L11.9998 13.0747L11.9998 13.0747L11.9998 13.0747L11.9998 13.0747L11.9998 13.0747L11.9998 13.0747L11.9997 13.0747L11.9997 13.0747L11.9997 13.0747L11.9997 13.0747L11.9997 13.0747L11.9996 13.0747L11.9996 13.0747L11.9996 13.0747L11.9996 13.0747L11.9996 13.0747L11.9996 13.0747L11.9995 13.0747L11.9995 13.0747L11.9995 13.0747L11.9995 13.0747L11.9995 13.0747L11.9995 13.0747L11.9994 13.0747L11.9994 13.0747L11.9994 13.0747L11.9994 13.0747L11.9994 13.0747L11.9993 13.0747L11.9993 13.0747L11.9993 13.0747L11.9993 13.0747L11.9993 13.0747L11.9993 13.0747L11.9992 13.0747L11.9992 13.0747L11.9992 13.0747L11.9992 13.0747L11.9992 13.0747L11.9991 13.0747L11.9991 13.0747L11.9991 13.0747L11.9991 13.0747L11.9991 13.0747L11.9991 13.0747L11.999 13.0747L11.999 13.0747L11.999 13.0747L11.999 13.0747L11.999 13.0747L11.9989 13.0747L11.9989 13.0747L11.9989 13.0747L11.9989 13.0747L11.9989 13.0747L11.9989 13.0747L11.9988 13.0747L11.9988 13.0747L11.9988 13.0747L11.9988 13.0747L11.9988 13.0747L11.9987 13.0747L11.9987 13.0747L11.9987 13.0747L11.9987 13.0747L11.9987 13.0747L11.9987 13.0747L11.9986 13.0747L11.9986 13.0747L11.9986 13.0747L11.9986 13.0747L11.9986 13.0747L11.9985 13.0747L11.9985 13.0747L11.9985 13.0747L11.9985 13.0747L11.9985 13.0747L11.9985 13.0747L11.9984 13.0747L11.9984 13.0747L11.9984 13.0747L11.9984 13.0747L11.9984 13.0747L11.9983 13.0747L11.9983 13.0747L11.9983 13.0747L11.9983 13.0747L11.9983 13.0747L11.9983 13.0747L11.9982 13.0747L11.9982 13.0747L11.9982 13.0747L11.9982 13.0747L11.9982 13.0747L11.9981 13.0747L11.9981 13.0747L11.9981 13.0747L11.9981 13.0747L11.9981 13.0747L11.9981 13.0747L11.998 13.0747L11.998 13.0747L11.998 13.0747L11.998 13.0747L11.998 13.0747L11.9979 13.0747L11.9979 13.0747L11.9979 13.0747L11.9979 13.0747L11.9979 13.0747L11.9979 13.0747L11.9978 13.0747L11.9978 13.0747L11.9978 13.0747L11.9978 13.0747L11.9978 13.0747L11.9977 13.0747L11.9977 13.0747L11.9977 13.0747L11.9977 13.0747L11.9977 13.0747L11.9976 13.0747L11.9976 13.0747L11.9976 13.0747L11.9976 13.0747L11.9976 13.0747L11.9976 13.0747L11.9975 13.0747L11.9975 13.0747L11.9975 13.0747L11.9975 13.0747L11.9975 13.0747L11.9974 13.0747L11.9974 13.0747L11.9974 13.0747L11.9974 13.0747L11.9974 13.0747L11.9974 13.0747L11.9973 13.0747L11.9973 13.0747L11.9973 13.0747L11.9973 13.0747L11.9973 13.0747L11.9972 13.0747L11.9972 13.0747L11.9972 13.0747L11.9972 13.0747L11.9972 13.0747L11.9971 13.0747L11.9971 13.0747L11.9971 13.0747L11.9971 13.0747L11.9971 13.0747L11.9971 13.0747L11.997 13.0747L11.997 13.0747L11.997 13.0747L11.997 13.0747L11.997 13.0747L11.9969 13.0747L11.9969 13.0747L11.9969 13.0747L11.9969 13.0747L11.9969 13.0747L11.9969 13.0747L11.9968 13.0747L11.9968 13.0747L11.9968 13.0747L11.9968 13.0747L11.9968 13.0747L11.9967 13.0747L11.9967 13.0747L11.9967 13.0747L11.9967 13.0747L11.9967 13.0747L11.9966 13.0747L11.9966 13.0747L11.9966 13.0747L11.9966 13.0747L11.9966 13.0747L11.9966 13.0747L11.9965 13.0747L11.9965 13.0747L11.9965 13.0747L11.9965 13.0747L11.9965 13.0747L11.9964 13.0747L11.9964 13.0747L11.9964 13.0747L11.9964 13.0747L11.9964 13.0747L11.9963 13.0747L11.9963 13.0747L11.9963 13.0747L11.9963 13.0747L11.9963 13.0747L11.9963 13.0747L11.9962 13.0747L11.9962 13.0747L11.9962 13.0747L11.9962 13.0747L11.9962 13.0747L11.9961 13.0747L11.9961 13.0747L11.9961 13.0747L11.9961 13.0747L11.9961 13.0747L11.996 13.0747L11.996 13.0747L11.996 13.0747L11.996 13.0747L11.996 13.0747L11.996 13.0747L11.9959 13.0747L11.9959 13.0747L11.9959 13.0747L11.9959 13.0747L11.9959 13.0747L11.9958 13.0747L11.9958 13.0747L11.9958 13.0747L11.9958 13.0747L11.9958 13.0747L11.9958 13.0747L11.9957 13.0747L11.9957 13.0747L11.9957 13.0747L11.9957 13.0747L11.9957 13.0747L11.9956 13.0747L11.9956 13.0747L11.9956 13.0747L11.9956 13.0747L11.9956 13.0747L11.9955 13.0747L11.9955 13.0747L11.9955 13.0747L11.9955 13.0747L11.9955 13.0747L11.9955 13.0747L11.9954 13.0747L11.9954 13.0747L11.9954 13.0747L11.9954 13.0747L11.9954 13.0747L11.9953 13.0747L11.9953 13.0747L11.9953 13.0747L11.9953 13.0747L11.9953 13.0747L11.9952 13.0747L11.9952 13.0747L11.9952 13.0747L11.9952 13.0747L11.9952 13.0747L11.9952 13.0747L11.9951 13.0747L11.9951 13.0747L11.9951 13.0747L11.9951 13.0747L11.9951 13.0747L11.995 13.0747L11.995 13.0747L11.995 13.0747L11.995 13.0747L11.995 13.0747L11.9949 13.0747L11.9949 13.0747L11.9949 13.0747L11.9949 13.0747L11.9949 13.0747L11.9949 13.0747L11.9948 13.0747L11.9948 13.0747L11.9948 13.0747L11.9948 13.0747L11.9948 13.0747L11.9947 13.0747L11.9947 13.0747L11.9947 13.0747L11.9947 13.0747L11.9947 13.0747L11.9946 13.0747L11.9946 13.0747L11.9946 13.0747L11.9946 13.0747L11.9946 13.0747L11.9946 13.0747L11.9945 13.0747L11.9945 13.0747L11.9945 13.0747L11.9945 13.0747L11.9945 13.0747L11.9944 13.0747L11.9944 13.0747L11.9944 13.0747L11.9944 13.0747L11.9944 13.0747L11.9944 13.0747L11.9943 13.0747L11.9943 13.0747L11.9943 13.0747L11.9943 13.0747L11.9943 13.0747L11.9942 13.0747L11.9942 13.0747L11.9942 13.0747L11.9942 13.0747L11.9942 13.0747L11.9941 13.0747L11.9941 13.0747L11.9941 13.0747L11.9941 13.0747L11.9941 13.0747L11.9941 13.0747L11.994 13.0747L11.994 13.0747L11.994 13.0747L11.994 13.0747L11.994 13.0747L11.9939 13.0747L11.9939 13.0747L11.9939 13.0747L11.9939 13.0747L11.9939 13.0747L11.9939 13.0747L11.9938 13.0747L11.9938 13.0747L11.9938 13.0747L11.9938 13.0747L11.9938 13.0747L11.9937 13.0747L11.9937 13.0747L11.9937 13.0747L11.9937 13.0747L11.9937 13.0747L11.9936 13.0747L11.9936 13.0747L11.9936 13.0747L11.9936 13.0747L11.9936 13.0747L11.9936 13.0747L11.9935 13.0747L11.9935 13.0747L11.9935 13.0747L11.9935 13.0747L11.9935 13.0747L11.9934 13.0747L11.9934 13.0747L11.9934 13.0747L11.9934 13.0747L11.9934 13.0747L11.9934 13.0747L11.9933 13.0747L11.9933 13.0747L11.9933 13.0747L11.9933 13.0747L11.9933 13.0747L11.9932 13.0747L11.9932 13.0747L11.9932 13.0747L11.9932 13.0747L11.9932 13.0747L11.9931 13.0747L11.9931 13.0747L11.9931 13.0747L11.9931 13.0747L11.9931 13.0747L11.9931 13.0747L11.993 13.0747L11.993 13.0747L11.993 13.0747L11.993 13.0747L11.993 13.0747L11.9929 13.0747L11.9929 13.0747L11.9929 13.0747L11.9929 13.0747L11.9929 13.0747L11.9929 13.0747L11.9928 13.0747L11.9928 13.0747L11.9928 13.0747L11.9928 13.0747L11.9928 13.0747L11.9927 13.0747L11.9927 13.0747L11.9927 13.0747L11.9927 13.0747L11.9927 13.0747L11.9927 13.0747L11.9926 13.0747L11.9926 13.0747L11.9926 13.0747L11.9926 13.0747L11.9926 13.0747L11.9925 13.0747L11.9925 13.0747L11.9925 13.0747L11.9925 13.0747L11.9925 13.0747L11.9925 13.0747L11.9924 13.0747L11.9924 13.0747L11.9924 13.0747L11.9924 13.0747L11.9924 13.0747L11.9923 13.0747L11.9923 13.0747L11.9923 13.0747L11.9923 13.0747L11.9923 13.0747L11.9923 13.0747L11.9922 13.0747L11.9922 13.0747L11.9922 13.0747L11.9922 13.0747L11.9922 13.0747L11.9921 13.0747L11.9921 13.0747L11.9921 13.0747L11.9921 13.0747L11.9921 13.0747L11.9921 13.0747L11.992 13.0747L11.992 13.0747L11.992 13.0747L11.992 13.0747L11.992 13.0747L11.9919 13.0747L11.9919 13.0747L11.9919 13.0747L11.9919 13.0747L11.9919 13.0747L11.9919 13.0747L11.9918 13.0747L11.9918 13.0747L11.9918 13.0747L11.9918 13.0747L11.9918 13.0747L11.9917 13.0747L11.9917 13.0747L11.9917 13.0747L11.9917 13.0747L11.9917 13.0747L11.9917 13.0747L11.9916 13.0747L11.9916 13.0747L11.9916 13.0747L11.9916 13.0747L11.9916 13.0747L11.9916 13.0747L11.9915 13.0747L11.9915 13.0747L11.9915 13.0747L11.9915 13.0747L11.9915 13.0747L11.9914 13.0747L11.9914 13.0747L11.9914 13.0747L11.9914 13.0747L11.9914 13.0747L11.9914 13.0747L11.9913 13.0747L11.9913 13.0747L11.9913 13.0747L11.9913 13.0747L11.9913 13.0747L11.9912 13.0747L11.9912 13.0747L11.9912 13.0747L11.9912 13.0747L11.9912 13.0747L11.9912 13.0747L11.9911 13.0747L11.9911 13.0747L11.9911 13.0747L11.9911 13.0747L11.9911 13.0747L11.9911 13.0747L11.991 13.0747L11.991 13.0747L11.991 13.0747L11.991 13.0747L11.991 13.0747L11.9909 13.0747L11.9909 13.0747L11.9909 13.0747L11.9909 13.0747L11.9909 13.0747ZM11.5753 13.51L11.6253 13.5087L11.5753 13.51C11.5753 13.51 11.5753 13.51 11.5753 13.51Z" stroke="#1E2328" stroke-opacity="0.6" stroke-width="0.1"/>
<path d="M13.5004 13.1248C13.5034 13.1248 13.5067 13.1248 13.5097 13.1248C13.7167 13.13 13.8806 13.3018 13.8754 13.5088L13.7816 17.2588C13.7764 17.4658 13.6035 17.6398 13.3976 17.6244C13.1906 17.6192 13.0267 17.4474 13.032 17.2404L13.1257 13.4904C13.1306 13.2868 13.2975 13.1248 13.5004 13.1248Z" fill="#1E2328" fill-opacity="0.6"/>
<path d="M13.511 13.0748L13.511 13.0748L13.1257 13.4904L13.0758 13.4892L13.0758 13.4892L12.982 17.2392C12.982 17.2392 12.982 17.2392 12.982 17.2392C12.9761 17.4735 13.1612 17.6678 13.3951 17.6744C13.6322 17.6913 13.8257 17.4919 13.8316 17.2601L13.8316 17.26L13.9253 13.5101C13.9254 13.5101 13.9254 13.5101 13.9254 13.51C13.9313 13.2753 13.7455 13.0808 13.511 13.0748Z" stroke="#1E2328" stroke-opacity="0.6" stroke-width="0.1"/>
</svg>
