<svg width="18" height="18" viewBox="0 0 18 18" fill="none" xmlns="http://www.w3.org/2000/svg">
<g clip-path="url(#clip0_16_27)">
<path d="M17.4454 14.9138H0.575132C0.268832 14.9138 0.0205078 15.1621 0.0205078 15.4684C0.0205078 15.7747 0.268832 16.0231 0.575132 16.0231H17.4454C17.7518 16.0231 18 15.7747 18 15.4684C18 15.1621 17.7517 14.9138 17.4454 14.9138Z" fill="#3E5EFF"/>
<path d="M3.18313 9.66466C3.32068 9.83164 3.54282 9.90345 3.75195 9.8485L7.42356 8.88538L7.10965 11.2826C7.0851 11.4698 7.15749 11.6567 7.30184 11.7784C7.40323 11.8641 7.53035 11.9093 7.65961 11.9093C7.71426 11.9093 7.76921 11.9012 7.82282 11.8847L9.76282 11.2872C9.88425 11.2498 9.98911 11.1719 10.06 11.0665L12.4948 7.44372L14.5329 6.59959C15.6654 6.13045 16.5247 5.64275 17.0869 5.15002C18.078 4.28148 18.0362 3.49598 17.8265 2.99009C17.6352 2.5279 17.1683 1.97705 16.0314 1.97705C15.2486 1.97705 14.2103 2.24275 12.9453 2.76676L4.82415 6.13052L2.48704 4.475C2.331 4.36445 2.12912 4.34212 1.9526 4.41585L0.340864 5.08916C0.178914 5.15682 0.0585971 5.29711 0.0162977 5.46741C-0.0259277 5.63779 0.0149666 5.81801 0.126557 5.95349L3.18313 9.66466ZM2.09666 5.55785L4.43288 7.2127C4.58855 7.32289 4.78976 7.34544 4.96577 7.27253L13.3697 3.79149C14.4836 3.33011 15.4039 3.08623 16.0313 3.08623C16.6657 3.08623 16.7645 3.32471 16.8017 3.41449C16.8401 3.50707 16.9569 3.78897 16.3558 4.31579C15.8915 4.72266 15.1144 5.15808 14.1083 5.57471L11.9157 6.48297C11.8148 6.52475 11.7285 6.59537 11.6675 6.68603L9.2488 10.2849L8.32161 10.5704L8.63043 8.21169C8.65439 8.02859 8.58569 7.84557 8.44711 7.72355C8.34461 7.63326 8.21387 7.58504 8.08039 7.58504C8.03343 7.58504 7.98618 7.59103 7.93973 7.60323L3.8137 8.68556L1.45758 5.82481L2.09666 5.55785Z" fill="#3E5EFF"/>
</g>
<defs>
<clipPath id="clip0_16_27">
<rect width="18" height="18" fill="white"/>
</clipPath>
</defs>
</svg>
