<svg width="19" height="18" viewBox="0 0 19 18" fill="none" xmlns="http://www.w3.org/2000/svg">
<g clip-path="url(#clip0_16_35)">
<path d="M17.125 16.3125H1.375C1.0645 16.3125 0.8125 16.0605 0.8125 15.75C0.8125 15.4395 1.0645 15.1875 1.375 15.1875H17.125C17.4355 15.1875 17.6875 15.4395 17.6875 15.75C17.6875 16.0605 17.4355 16.3125 17.125 16.3125ZM16.4095 12.5668C16.5389 12.492 16.6328 12.3694 16.6716 12.2254C17.1812 10.323 16.2273 8.66308 14.2849 8.09214L11.8398 7.43683L9.84906 2.47783C9.78269 2.31358 9.64375 2.18983 9.47275 2.14427L7.84263 1.70777C7.66375 1.65995 7.47363 1.70214 7.33356 1.82195C7.19294 1.9412 7.11981 2.12177 7.13725 2.30514L7.52425 6.28089L5.33894 5.69533L4.78544 4.05845C4.72525 3.88014 4.57956 3.74402 4.39844 3.69564L3.31113 3.40427C3.00962 3.32214 2.7025 3.50214 2.62262 3.80195L1.74906 7.06164C1.50831 7.95995 2.04325 8.88752 2.94212 9.12827L15.9826 12.622C16.0304 12.6349 16.0793 12.6411 16.1283 12.6411C16.2256 12.6422 16.3229 12.6163 16.4095 12.5668ZM3.81625 4.7042L4.36975 6.33995C4.42994 6.51827 4.57562 6.65439 4.75675 6.70333L8.01644 7.57689C8.19362 7.62358 8.38487 7.58195 8.5255 7.4627C8.66612 7.34345 8.73925 7.16289 8.72181 6.97952L8.33481 3.00377L8.90913 3.15733L10.8998 8.11633C10.9656 8.28058 11.1051 8.40433 11.2761 8.44989L13.9795 9.17439C15.1231 9.51077 15.7379 10.3303 15.6766 11.376L3.2335 8.04208C2.93369 7.96164 2.75538 7.65283 2.83525 7.35301L3.56312 4.63614L3.81625 4.7042Z" fill="#3E5EFF"/>
</g>
<defs>
<clipPath id="clip0_16_35">
<rect width="18" height="18" fill="white" transform="translate(0.25)"/>
</clipPath>
</defs>
</svg>
