<svg width="22" height="22" viewBox="0 0 22 22" fill="none" xmlns="http://www.w3.org/2000/svg">
<mask id="path-1-outside-1_38_29" maskUnits="userSpaceOnUse" x="1" y="1" width="20" height="19" fill="black">
<rect fill="white" x="1" y="1" width="20" height="19"/>
<path d="M6.46909 19.121C6.45499 19.025 6.46066 18.9273 6.486 18.8279L6.49587 18.7999L8.53388 12.6735H5.34833C5.27837 12.6735 5.22232 12.6831 5.18023 12.7024C5.14511 12.7185 5.11345 12.7446 5.08532 12.7805L4.45599 13.6326L4.45104 13.6392C4.26513 13.8809 3.6678 14.0884 3.1569 14.1167C2.97133 14.1269 2.78843 14.1171 2.63028 14.0811C2.41188 14.0315 2.2298 13.931 2.11516 13.7662C2.00764 13.6116 1.97006 13.4272 2.0257 13.2101L2.02899 13.1937L2.66142 11.0701L2.66307 11.0668C2.68505 10.9954 2.69604 10.9223 2.69604 10.8476C2.69604 10.773 2.68505 10.7 2.66307 10.6286L2.66142 10.6253L2.02899 8.50148L2.0257 8.48503C1.96984 8.26799 2.00746 8.08352 2.11511 7.92887C2.22972 7.76425 2.41174 7.66378 2.62997 7.6141C2.78796 7.57814 2.97073 7.5683 3.15622 7.57852C3.6666 7.60662 4.26426 7.81479 4.45104 8.05788L4.45599 8.06281L5.08532 8.91489C5.11344 8.95083 5.1451 8.97691 5.1802 8.993C5.22229 9.01232 5.27837 9.02199 5.34833 9.02199H8.5339L6.49587 2.8955L6.486 2.86752C6.46066 2.76817 6.455 2.67047 6.46908 2.57449C6.48425 2.47094 6.52192 2.37508 6.58211 2.28703C6.64797 2.19068 6.73163 2.11778 6.8329 2.0685C6.92653 2.02289 7.02904 2 7.14024 2H8.40498C8.59302 2 8.76589 2.04323 8.92361 2.12971C9.07563 2.21303 9.20592 2.334 9.31443 2.49252L9.32595 2.51062L13.2257 8.91614L13.2323 8.92767C13.2511 8.96065 13.2729 8.98399 13.2978 8.99761C13.3274 9.01386 13.3712 9.022 13.4291 9.022H17.8208C18.8628 9.022 19.5221 9.47169 19.8198 10.0539C19.9431 10.2951 20.0024 10.5574 19.9999 10.82C19.9974 11.0818 19.9345 11.3429 19.8133 11.5827C19.5053 12.1919 18.8271 12.6735 17.8208 12.6735H13.4291C13.3713 12.6735 13.3274 12.6816 13.2978 12.6979C13.2729 12.7115 13.2511 12.7348 13.2323 12.7678L13.2257 12.7793L9.32596 19.1845L9.31444 19.2027C9.206 19.3611 9.07572 19.4821 8.92362 19.5656C8.76599 19.6522 8.5931 19.6955 8.40498 19.6955H7.14025C7.02899 19.6955 6.92646 19.6726 6.83286 19.6269C6.73138 19.5774 6.64773 19.5045 6.58212 19.4082C6.52202 19.3205 6.48432 19.2247 6.46909 19.121ZM7.36245 18.8528H8.40498C8.45108 18.8528 8.48903 18.8446 8.51873 18.8283C8.55246 18.8098 8.58485 18.7785 8.61581 18.7346L12.5081 12.3415L12.5082 12.3416C12.6057 12.1747 12.734 12.0477 12.8929 11.9605C13.0506 11.8741 13.2294 11.8308 13.4291 11.8308H17.8208C18.4669 11.8308 18.8859 11.5541 19.0628 11.2042C19.1263 11.0785 19.1593 10.9447 19.1605 10.8134C19.1618 10.6829 19.1328 10.5536 19.0726 10.4357C18.9079 10.1135 18.5005 9.86466 17.8208 9.86466H13.4291C13.2294 9.86466 13.0506 9.82143 12.8929 9.73494C12.734 9.64784 12.6058 9.52077 12.5082 9.35388L12.5081 9.35393L8.61581 2.96061C8.58491 2.91677 8.55254 2.88555 8.51873 2.86703C8.48912 2.85079 8.45119 2.84266 8.40498 2.84266H7.36246L9.3895 8.9362C9.43953 9.04317 9.4606 9.15075 9.45275 9.25878C9.44317 9.39063 9.39353 9.509 9.30402 9.61382C9.23464 9.69493 9.15197 9.75719 9.05624 9.80046L9.05652 9.80108C8.96239 9.84341 8.86227 9.86465 8.75639 9.86465H5.34833C5.16057 9.86465 4.98821 9.82862 4.8313 9.75663C4.66813 9.68176 4.53057 9.57155 4.41868 9.4261L4.41373 9.41953L3.78121 8.56314L3.78158 8.56286C3.71812 8.4974 3.41096 8.43444 3.11012 8.41788C3.02738 8.41332 2.94979 8.41432 2.88335 8.42214L3.46785 10.385L3.46726 10.3852C3.51489 10.5409 3.5387 10.6951 3.5387 10.8476C3.5387 11.0002 3.51489 11.1544 3.46726 11.3102L3.46785 11.3104L2.88335 13.2731C2.94993 13.2809 3.02778 13.2819 3.11081 13.2773C3.41736 13.2603 3.73087 13.1943 3.78536 13.1267L4.41373 12.2759L4.41868 12.2693C4.53063 12.1239 4.66819 12.0137 4.83133 11.9388C4.98827 11.8668 5.16058 11.8308 5.34833 11.8308H8.75639C8.86988 11.8308 8.97346 11.8503 9.06703 11.8894C9.18514 11.9386 9.27934 12.0148 9.34945 12.1178C9.42232 12.2241 9.4588 12.3402 9.4588 12.4661C9.4588 12.5635 9.43566 12.6612 9.38946 12.7594L7.36245 18.8528Z"/>
</mask>
<path d="M6.46909 19.121C6.45499 19.025 6.46066 18.9273 6.486 18.8279L6.49587 18.7999L8.53388 12.6735H5.34833C5.27837 12.6735 5.22232 12.6831 5.18023 12.7024C5.14511 12.7185 5.11345 12.7446 5.08532 12.7805L4.45599 13.6326L4.45104 13.6392C4.26513 13.8809 3.6678 14.0884 3.1569 14.1167C2.97133 14.1269 2.78843 14.1171 2.63028 14.0811C2.41188 14.0315 2.2298 13.931 2.11516 13.7662C2.00764 13.6116 1.97006 13.4272 2.0257 13.2101L2.02899 13.1937L2.66142 11.0701L2.66307 11.0668C2.68505 10.9954 2.69604 10.9223 2.69604 10.8476C2.69604 10.773 2.68505 10.7 2.66307 10.6286L2.66142 10.6253L2.02899 8.50148L2.0257 8.48503C1.96984 8.26799 2.00746 8.08352 2.11511 7.92887C2.22972 7.76425 2.41174 7.66378 2.62997 7.6141C2.78796 7.57814 2.97073 7.5683 3.15622 7.57852C3.6666 7.60662 4.26426 7.81479 4.45104 8.05788L4.45599 8.06281L5.08532 8.91489C5.11344 8.95083 5.1451 8.97691 5.1802 8.993C5.22229 9.01232 5.27837 9.02199 5.34833 9.02199H8.5339L6.49587 2.8955L6.486 2.86752C6.46066 2.76817 6.455 2.67047 6.46908 2.57449C6.48425 2.47094 6.52192 2.37508 6.58211 2.28703C6.64797 2.19068 6.73163 2.11778 6.8329 2.0685C6.92653 2.02289 7.02904 2 7.14024 2H8.40498C8.59302 2 8.76589 2.04323 8.92361 2.12971C9.07563 2.21303 9.20592 2.334 9.31443 2.49252L9.32595 2.51062L13.2257 8.91614L13.2323 8.92767C13.2511 8.96065 13.2729 8.98399 13.2978 8.99761C13.3274 9.01386 13.3712 9.022 13.4291 9.022H17.8208C18.8628 9.022 19.5221 9.47169 19.8198 10.0539C19.9431 10.2951 20.0024 10.5574 19.9999 10.82C19.9974 11.0818 19.9345 11.3429 19.8133 11.5827C19.5053 12.1919 18.8271 12.6735 17.8208 12.6735H13.4291C13.3713 12.6735 13.3274 12.6816 13.2978 12.6979C13.2729 12.7115 13.2511 12.7348 13.2323 12.7678L13.2257 12.7793L9.32596 19.1845L9.31444 19.2027C9.206 19.3611 9.07572 19.4821 8.92362 19.5656C8.76599 19.6522 8.5931 19.6955 8.40498 19.6955H7.14025C7.02899 19.6955 6.92646 19.6726 6.83286 19.6269C6.73138 19.5774 6.64773 19.5045 6.58212 19.4082C6.52202 19.3205 6.48432 19.2247 6.46909 19.121ZM7.36245 18.8528H8.40498C8.45108 18.8528 8.48903 18.8446 8.51873 18.8283C8.55246 18.8098 8.58485 18.7785 8.61581 18.7346L12.5081 12.3415L12.5082 12.3416C12.6057 12.1747 12.734 12.0477 12.8929 11.9605C13.0506 11.8741 13.2294 11.8308 13.4291 11.8308H17.8208C18.4669 11.8308 18.8859 11.5541 19.0628 11.2042C19.1263 11.0785 19.1593 10.9447 19.1605 10.8134C19.1618 10.6829 19.1328 10.5536 19.0726 10.4357C18.9079 10.1135 18.5005 9.86466 17.8208 9.86466H13.4291C13.2294 9.86466 13.0506 9.82143 12.8929 9.73494C12.734 9.64784 12.6058 9.52077 12.5082 9.35388L12.5081 9.35393L8.61581 2.96061C8.58491 2.91677 8.55254 2.88555 8.51873 2.86703C8.48912 2.85079 8.45119 2.84266 8.40498 2.84266H7.36246L9.3895 8.9362C9.43953 9.04317 9.4606 9.15075 9.45275 9.25878C9.44317 9.39063 9.39353 9.509 9.30402 9.61382C9.23464 9.69493 9.15197 9.75719 9.05624 9.80046L9.05652 9.80108C8.96239 9.84341 8.86227 9.86465 8.75639 9.86465H5.34833C5.16057 9.86465 4.98821 9.82862 4.8313 9.75663C4.66813 9.68176 4.53057 9.57155 4.41868 9.4261L4.41373 9.41953L3.78121 8.56314L3.78158 8.56286C3.71812 8.4974 3.41096 8.43444 3.11012 8.41788C3.02738 8.41332 2.94979 8.41432 2.88335 8.42214L3.46785 10.385L3.46726 10.3852C3.51489 10.5409 3.5387 10.6951 3.5387 10.8476C3.5387 11.0002 3.51489 11.1544 3.46726 11.3102L3.46785 11.3104L2.88335 13.2731C2.94993 13.2809 3.02778 13.2819 3.11081 13.2773C3.41736 13.2603 3.73087 13.1943 3.78536 13.1267L4.41373 12.2759L4.41868 12.2693C4.53063 12.1239 4.66819 12.0137 4.83133 11.9388C4.98827 11.8668 5.16058 11.8308 5.34833 11.8308H8.75639C8.86988 11.8308 8.97346 11.8503 9.06703 11.8894C9.18514 11.9386 9.27934 12.0148 9.34945 12.1178C9.42232 12.2241 9.4588 12.3402 9.4588 12.4661C9.4588 12.5635 9.43566 12.6612 9.38946 12.7594L7.36245 18.8528Z" fill="#1E2328" fill-opacity="0.6"/>
<path d="M6.46909 19.121C6.45499 19.025 6.46066 18.9273 6.486 18.8279L6.49587 18.7999L8.53388 12.6735H5.34833C5.27837 12.6735 5.22232 12.6831 5.18023 12.7024C5.14511 12.7185 5.11345 12.7446 5.08532 12.7805L4.45599 13.6326L4.45104 13.6392C4.26513 13.8809 3.6678 14.0884 3.1569 14.1167C2.97133 14.1269 2.78843 14.1171 2.63028 14.0811C2.41188 14.0315 2.2298 13.931 2.11516 13.7662C2.00764 13.6116 1.97006 13.4272 2.0257 13.2101L2.02899 13.1937L2.66142 11.0701L2.66307 11.0668C2.68505 10.9954 2.69604 10.9223 2.69604 10.8476C2.69604 10.773 2.68505 10.7 2.66307 10.6286L2.66142 10.6253L2.02899 8.50148L2.0257 8.48503C1.96984 8.26799 2.00746 8.08352 2.11511 7.92887C2.22972 7.76425 2.41174 7.66378 2.62997 7.6141C2.78796 7.57814 2.97073 7.5683 3.15622 7.57852C3.6666 7.60662 4.26426 7.81479 4.45104 8.05788L4.45599 8.06281L5.08532 8.91489C5.11344 8.95083 5.1451 8.97691 5.1802 8.993C5.22229 9.01232 5.27837 9.02199 5.34833 9.02199H8.5339L6.49587 2.8955L6.486 2.86752C6.46066 2.76817 6.455 2.67047 6.46908 2.57449C6.48425 2.47094 6.52192 2.37508 6.58211 2.28703C6.64797 2.19068 6.73163 2.11778 6.8329 2.0685C6.92653 2.02289 7.02904 2 7.14024 2H8.40498C8.59302 2 8.76589 2.04323 8.92361 2.12971C9.07563 2.21303 9.20592 2.334 9.31443 2.49252L9.32595 2.51062L13.2257 8.91614L13.2323 8.92767C13.2511 8.96065 13.2729 8.98399 13.2978 8.99761C13.3274 9.01386 13.3712 9.022 13.4291 9.022H17.8208C18.8628 9.022 19.5221 9.47169 19.8198 10.0539C19.9431 10.2951 20.0024 10.5574 19.9999 10.82C19.9974 11.0818 19.9345 11.3429 19.8133 11.5827C19.5053 12.1919 18.8271 12.6735 17.8208 12.6735H13.4291C13.3713 12.6735 13.3274 12.6816 13.2978 12.6979C13.2729 12.7115 13.2511 12.7348 13.2323 12.7678L13.2257 12.7793L9.32596 19.1845L9.31444 19.2027C9.206 19.3611 9.07572 19.4821 8.92362 19.5656C8.76599 19.6522 8.5931 19.6955 8.40498 19.6955H7.14025C7.02899 19.6955 6.92646 19.6726 6.83286 19.6269C6.73138 19.5774 6.64773 19.5045 6.58212 19.4082C6.52202 19.3205 6.48432 19.2247 6.46909 19.121ZM7.36245 18.8528H8.40498C8.45108 18.8528 8.48903 18.8446 8.51873 18.8283C8.55246 18.8098 8.58485 18.7785 8.61581 18.7346L12.5081 12.3415L12.5082 12.3416C12.6057 12.1747 12.734 12.0477 12.8929 11.9605C13.0506 11.8741 13.2294 11.8308 13.4291 11.8308H17.8208C18.4669 11.8308 18.8859 11.5541 19.0628 11.2042C19.1263 11.0785 19.1593 10.9447 19.1605 10.8134C19.1618 10.6829 19.1328 10.5536 19.0726 10.4357C18.9079 10.1135 18.5005 9.86466 17.8208 9.86466H13.4291C13.2294 9.86466 13.0506 9.82143 12.8929 9.73494C12.734 9.64784 12.6058 9.52077 12.5082 9.35388L12.5081 9.35393L8.61581 2.96061C8.58491 2.91677 8.55254 2.88555 8.51873 2.86703C8.48912 2.85079 8.45119 2.84266 8.40498 2.84266H7.36246L9.3895 8.9362C9.43953 9.04317 9.4606 9.15075 9.45275 9.25878C9.44317 9.39063 9.39353 9.509 9.30402 9.61382C9.23464 9.69493 9.15197 9.75719 9.05624 9.80046L9.05652 9.80108C8.96239 9.84341 8.86227 9.86465 8.75639 9.86465H5.34833C5.16057 9.86465 4.98821 9.82862 4.8313 9.75663C4.66813 9.68176 4.53057 9.57155 4.41868 9.4261L4.41373 9.41953L3.78121 8.56314L3.78158 8.56286C3.71812 8.4974 3.41096 8.43444 3.11012 8.41788C3.02738 8.41332 2.94979 8.41432 2.88335 8.42214L3.46785 10.385L3.46726 10.3852C3.51489 10.5409 3.5387 10.6951 3.5387 10.8476C3.5387 11.0002 3.51489 11.1544 3.46726 11.3102L3.46785 11.3104L2.88335 13.2731C2.94993 13.2809 3.02778 13.2819 3.11081 13.2773C3.41736 13.2603 3.73087 13.1943 3.78536 13.1267L4.41373 12.2759L4.41868 12.2693C4.53063 12.1239 4.66819 12.0137 4.83133 11.9388C4.98827 11.8668 5.16058 11.8308 5.34833 11.8308H8.75639C8.86988 11.8308 8.97346 11.8503 9.06703 11.8894C9.18514 11.9386 9.27934 12.0148 9.34945 12.1178C9.42232 12.2241 9.4588 12.3402 9.4588 12.4661C9.4588 12.5635 9.43566 12.6612 9.38946 12.7594L7.36245 18.8528Z" stroke="#1E2328" stroke-opacity="0.6" stroke-width="0.2" mask="url(#path-1-outside-1_38_29)"/>
</svg>
