<svg width="18" height="20" viewBox="0 0 18 20" fill="none" xmlns="http://www.w3.org/2000/svg">
<mask id="path-1-outside-1_16_83" maskUnits="userSpaceOnUse" x="-0.25" y="0" width="18" height="20" fill="black">
<rect fill="white" x="-0.25" width="18" height="20"/>
<path d="M6.91083 5.81574L5.71083 7.91574C5.5507 8.19147 5.50801 8.51995 5.59233 8.82744C5.60778 8.87868 5.62673 8.92879 5.64903 8.97744L4.70823 12.203C3.37879 11.9666 2.08123 12.7567 1.68093 14.0462L0.792026 16.8566C0.64383 17.3258 0.899848 17.827 1.36683 17.9819L2.93793 18.5078C3.46343 19.0998 4.35915 19.1797 4.98116 18.6902C5.60317 18.2007 5.73603 17.3113 5.28423 16.6613L7.36113 9.53934C7.53995 9.43548 7.68839 9.28652 7.79163 9.10734L8.71533 7.49154L9.53943 7.34154L6.50313 17.4662C6.41106 17.7705 6.4438 18.0988 6.59412 18.3789C6.74445 18.6589 7 18.8677 7.30443 18.959C7.41664 18.9938 7.53345 19.0115 7.65093 19.0115C8.17987 19.0086 8.64531 18.6617 8.79933 18.1556L10.287 13.2011L11.9349 14.5478L12.4635 17.9954C12.5523 18.5819 13.0578 19.0145 13.6509 19.0115C13.7125 19.0121 13.774 19.0069 13.8345 18.9959C14.489 18.8945 14.9379 18.2827 14.8383 17.6279L14.2383 13.7249C14.1904 13.4341 14.0386 13.1705 13.8111 12.983L11.7711 11.3144L12.4149 8.87334L13.365 9.92034C13.5929 10.1685 13.914 10.3103 14.2509 10.3115H16.0509C16.7137 10.3115 17.2509 9.77428 17.2509 9.11154C17.2509 8.4488 16.7137 7.91154 16.0509 7.91154H14.7828L12.6009 5.51154C13.6543 5.51407 14.5691 4.78725 14.8048 3.76063C15.0405 2.734 14.5344 1.68091 13.5854 1.22371C12.6365 0.766511 11.4974 1.02694 10.8415 1.85108C10.1855 2.67522 10.1872 3.84365 10.8456 4.66584L7.73493 5.23134C7.38681 5.29346 7.0846 5.50777 6.91083 5.81574ZM5.82483 12.6641C5.656 12.5468 5.47494 12.4481 5.28483 12.3698L6.11493 9.52344C6.12873 9.53184 6.14013 9.54324 6.15453 9.55134C6.31767 9.64403 6.50048 9.69667 6.68793 9.70494L5.82483 12.6641ZM1.55523 17.4125C1.39985 17.3608 1.31467 17.194 1.36383 17.0378L2.25093 14.2274C2.58892 13.137 3.74156 12.5216 4.83573 12.8474C5.13222 12.9341 5.40786 13.0805 5.64573 13.2776L4.78923 16.214C4.56509 16.0831 4.31051 16.0133 4.05093 16.0115C3.22291 16.0125 2.55192 16.6835 2.55093 17.5115C2.5524 17.5929 2.56063 17.674 2.57553 17.7539L1.55523 17.4125ZM4.05093 18.4115C3.55387 18.4115 3.15093 18.0086 3.15093 17.5115C3.15093 17.0145 3.55387 16.6115 4.05093 16.6115C4.54798 16.6115 4.95093 17.0145 4.95093 17.5115C4.95093 18.0086 4.54798 18.4115 4.05093 18.4115ZM12.6009 1.61154C13.5122 1.61154 14.2509 2.35027 14.2509 3.26154C14.2509 4.17281 13.5122 4.91154 12.6009 4.91154C11.6897 4.91154 10.9509 4.17281 10.9509 3.26154C10.9519 2.35068 11.6901 1.61253 12.6009 1.61154ZM11.1192 5.22504C11.3238 5.18097 11.5367 5.2451 11.6829 5.39484C11.6945 5.40965 11.7074 5.42331 11.7216 5.43564L14.4282 8.41344C14.4851 8.47595 14.5657 8.51157 14.6502 8.51154H16.0509C16.3823 8.51154 16.6509 8.78017 16.6509 9.11154C16.6509 9.44291 16.3823 9.71154 16.0509 9.71154H14.2509C14.0822 9.71105 13.9214 9.64014 13.8072 9.51594L12.4872 8.06094C12.4133 7.97957 12.3008 7.94515 12.194 7.97124C12.0872 7.99733 12.0032 8.07975 11.9751 8.18604L11.1408 11.348C11.1109 11.4617 11.15 11.5824 11.241 11.6567L13.431 13.4465C13.5452 13.5409 13.6217 13.6731 13.6464 13.8191L14.2464 17.7191C14.27 17.8781 14.2292 18.0399 14.1332 18.1687C14.0371 18.2975 13.8937 18.3828 13.7346 18.4055C13.707 18.4101 13.679 18.4121 13.6509 18.4115C13.3556 18.4102 13.1044 18.1957 13.0566 17.9042L12.5109 14.3429C12.4997 14.2696 12.4616 14.203 12.4041 14.156L10.3191 12.4523C10.2415 12.389 10.1374 12.3686 10.0416 12.3979C9.94578 12.4273 9.87095 12.5025 9.84213 12.5984L8.22483 17.9834C8.12922 18.3003 7.79513 18.4799 7.47813 18.3848C7.32601 18.3394 7.19825 18.2353 7.1231 18.0954C7.04794 17.9556 7.03158 17.7916 7.07763 17.6396L10.2546 7.04664C10.2846 6.94671 10.2604 6.83841 10.1909 6.76063C10.1214 6.68285 10.0165 6.64677 9.91383 6.66534L8.47083 6.92634C8.38358 6.94216 8.3078 6.99575 8.26383 7.07274L7.27053 8.81154C7.17131 9.01128 6.9695 9.13952 6.74653 9.14448C6.52356 9.14945 6.31623 9.03034 6.20822 8.83521C6.10021 8.64009 6.10934 8.40116 6.23193 8.21484L7.43193 6.11214C7.51869 5.95957 7.6689 5.85356 7.84173 5.82294L11.1192 5.22504Z"/>
</mask>
<path d="M6.91083 5.81574L5.71083 7.91574C5.5507 8.19147 5.50801 8.51995 5.59233 8.82744C5.60778 8.87868 5.62673 8.92879 5.64903 8.97744L4.70823 12.203C3.37879 11.9666 2.08123 12.7567 1.68093 14.0462L0.792026 16.8566C0.64383 17.3258 0.899848 17.827 1.36683 17.9819L2.93793 18.5078C3.46343 19.0998 4.35915 19.1797 4.98116 18.6902C5.60317 18.2007 5.73603 17.3113 5.28423 16.6613L7.36113 9.53934C7.53995 9.43548 7.68839 9.28652 7.79163 9.10734L8.71533 7.49154L9.53943 7.34154L6.50313 17.4662C6.41106 17.7705 6.4438 18.0988 6.59412 18.3789C6.74445 18.6589 7 18.8677 7.30443 18.959C7.41664 18.9938 7.53345 19.0115 7.65093 19.0115C8.17987 19.0086 8.64531 18.6617 8.79933 18.1556L10.287 13.2011L11.9349 14.5478L12.4635 17.9954C12.5523 18.5819 13.0578 19.0145 13.6509 19.0115C13.7125 19.0121 13.774 19.0069 13.8345 18.9959C14.489 18.8945 14.9379 18.2827 14.8383 17.6279L14.2383 13.7249C14.1904 13.4341 14.0386 13.1705 13.8111 12.983L11.7711 11.3144L12.4149 8.87334L13.365 9.92034C13.5929 10.1685 13.914 10.3103 14.2509 10.3115H16.0509C16.7137 10.3115 17.2509 9.77428 17.2509 9.11154C17.2509 8.4488 16.7137 7.91154 16.0509 7.91154H14.7828L12.6009 5.51154C13.6543 5.51407 14.5691 4.78725 14.8048 3.76063C15.0405 2.734 14.5344 1.68091 13.5854 1.22371C12.6365 0.766511 11.4974 1.02694 10.8415 1.85108C10.1855 2.67522 10.1872 3.84365 10.8456 4.66584L7.73493 5.23134C7.38681 5.29346 7.0846 5.50777 6.91083 5.81574ZM5.82483 12.6641C5.656 12.5468 5.47494 12.4481 5.28483 12.3698L6.11493 9.52344C6.12873 9.53184 6.14013 9.54324 6.15453 9.55134C6.31767 9.64403 6.50048 9.69667 6.68793 9.70494L5.82483 12.6641ZM1.55523 17.4125C1.39985 17.3608 1.31467 17.194 1.36383 17.0378L2.25093 14.2274C2.58892 13.137 3.74156 12.5216 4.83573 12.8474C5.13222 12.9341 5.40786 13.0805 5.64573 13.2776L4.78923 16.214C4.56509 16.0831 4.31051 16.0133 4.05093 16.0115C3.22291 16.0125 2.55192 16.6835 2.55093 17.5115C2.5524 17.5929 2.56063 17.674 2.57553 17.7539L1.55523 17.4125ZM4.05093 18.4115C3.55387 18.4115 3.15093 18.0086 3.15093 17.5115C3.15093 17.0145 3.55387 16.6115 4.05093 16.6115C4.54798 16.6115 4.95093 17.0145 4.95093 17.5115C4.95093 18.0086 4.54798 18.4115 4.05093 18.4115ZM12.6009 1.61154C13.5122 1.61154 14.2509 2.35027 14.2509 3.26154C14.2509 4.17281 13.5122 4.91154 12.6009 4.91154C11.6897 4.91154 10.9509 4.17281 10.9509 3.26154C10.9519 2.35068 11.6901 1.61253 12.6009 1.61154ZM11.1192 5.22504C11.3238 5.18097 11.5367 5.2451 11.6829 5.39484C11.6945 5.40965 11.7074 5.42331 11.7216 5.43564L14.4282 8.41344C14.4851 8.47595 14.5657 8.51157 14.6502 8.51154H16.0509C16.3823 8.51154 16.6509 8.78017 16.6509 9.11154C16.6509 9.44291 16.3823 9.71154 16.0509 9.71154H14.2509C14.0822 9.71105 13.9214 9.64014 13.8072 9.51594L12.4872 8.06094C12.4133 7.97957 12.3008 7.94515 12.194 7.97124C12.0872 7.99733 12.0032 8.07975 11.9751 8.18604L11.1408 11.348C11.1109 11.4617 11.15 11.5824 11.241 11.6567L13.431 13.4465C13.5452 13.5409 13.6217 13.6731 13.6464 13.8191L14.2464 17.7191C14.27 17.8781 14.2292 18.0399 14.1332 18.1687C14.0371 18.2975 13.8937 18.3828 13.7346 18.4055C13.707 18.4101 13.679 18.4121 13.6509 18.4115C13.3556 18.4102 13.1044 18.1957 13.0566 17.9042L12.5109 14.3429C12.4997 14.2696 12.4616 14.203 12.4041 14.156L10.3191 12.4523C10.2415 12.389 10.1374 12.3686 10.0416 12.3979C9.94578 12.4273 9.87095 12.5025 9.84213 12.5984L8.22483 17.9834C8.12922 18.3003 7.79513 18.4799 7.47813 18.3848C7.32601 18.3394 7.19825 18.2353 7.1231 18.0954C7.04794 17.9556 7.03158 17.7916 7.07763 17.6396L10.2546 7.04664C10.2846 6.94671 10.2604 6.83841 10.1909 6.76063C10.1214 6.68285 10.0165 6.64677 9.91383 6.66534L8.47083 6.92634C8.38358 6.94216 8.3078 6.99575 8.26383 7.07274L7.27053 8.81154C7.17131 9.01128 6.9695 9.13952 6.74653 9.14448C6.52356 9.14945 6.31623 9.03034 6.20822 8.83521C6.10021 8.64009 6.10934 8.40116 6.23193 8.21484L7.43193 6.11214C7.51869 5.95957 7.6689 5.85356 7.84173 5.82294L11.1192 5.22504Z" fill="#3E5EFF"/>
<path d="M6.91083 5.81574L5.71083 7.91574C5.5507 8.19147 5.50801 8.51995 5.59233 8.82744C5.60778 8.87868 5.62673 8.92879 5.64903 8.97744L4.70823 12.203C3.37879 11.9666 2.08123 12.7567 1.68093 14.0462L0.792026 16.8566C0.64383 17.3258 0.899848 17.827 1.36683 17.9819L2.93793 18.5078C3.46343 19.0998 4.35915 19.1797 4.98116 18.6902C5.60317 18.2007 5.73603 17.3113 5.28423 16.6613L7.36113 9.53934C7.53995 9.43548 7.68839 9.28652 7.79163 9.10734L8.71533 7.49154L9.53943 7.34154L6.50313 17.4662C6.41106 17.7705 6.4438 18.0988 6.59412 18.3789C6.74445 18.6589 7 18.8677 7.30443 18.959C7.41664 18.9938 7.53345 19.0115 7.65093 19.0115C8.17987 19.0086 8.64531 18.6617 8.79933 18.1556L10.287 13.2011L11.9349 14.5478L12.4635 17.9954C12.5523 18.5819 13.0578 19.0145 13.6509 19.0115C13.7125 19.0121 13.774 19.0069 13.8345 18.9959C14.489 18.8945 14.9379 18.2827 14.8383 17.6279L14.2383 13.7249C14.1904 13.4341 14.0386 13.1705 13.8111 12.983L11.7711 11.3144L12.4149 8.87334L13.365 9.92034C13.5929 10.1685 13.914 10.3103 14.2509 10.3115H16.0509C16.7137 10.3115 17.2509 9.77428 17.2509 9.11154C17.2509 8.4488 16.7137 7.91154 16.0509 7.91154H14.7828L12.6009 5.51154C13.6543 5.51407 14.5691 4.78725 14.8048 3.76063C15.0405 2.734 14.5344 1.68091 13.5854 1.22371C12.6365 0.766511 11.4974 1.02694 10.8415 1.85108C10.1855 2.67522 10.1872 3.84365 10.8456 4.66584L7.73493 5.23134C7.38681 5.29346 7.0846 5.50777 6.91083 5.81574ZM5.82483 12.6641C5.656 12.5468 5.47494 12.4481 5.28483 12.3698L6.11493 9.52344C6.12873 9.53184 6.14013 9.54324 6.15453 9.55134C6.31767 9.64403 6.50048 9.69667 6.68793 9.70494L5.82483 12.6641ZM1.55523 17.4125C1.39985 17.3608 1.31467 17.194 1.36383 17.0378L2.25093 14.2274C2.58892 13.137 3.74156 12.5216 4.83573 12.8474C5.13222 12.9341 5.40786 13.0805 5.64573 13.2776L4.78923 16.214C4.56509 16.0831 4.31051 16.0133 4.05093 16.0115C3.22291 16.0125 2.55192 16.6835 2.55093 17.5115C2.5524 17.5929 2.56063 17.674 2.57553 17.7539L1.55523 17.4125ZM4.05093 18.4115C3.55387 18.4115 3.15093 18.0086 3.15093 17.5115C3.15093 17.0145 3.55387 16.6115 4.05093 16.6115C4.54798 16.6115 4.95093 17.0145 4.95093 17.5115C4.95093 18.0086 4.54798 18.4115 4.05093 18.4115ZM12.6009 1.61154C13.5122 1.61154 14.2509 2.35027 14.2509 3.26154C14.2509 4.17281 13.5122 4.91154 12.6009 4.91154C11.6897 4.91154 10.9509 4.17281 10.9509 3.26154C10.9519 2.35068 11.6901 1.61253 12.6009 1.61154ZM11.1192 5.22504C11.3238 5.18097 11.5367 5.2451 11.6829 5.39484C11.6945 5.40965 11.7074 5.42331 11.7216 5.43564L14.4282 8.41344C14.4851 8.47595 14.5657 8.51157 14.6502 8.51154H16.0509C16.3823 8.51154 16.6509 8.78017 16.6509 9.11154C16.6509 9.44291 16.3823 9.71154 16.0509 9.71154H14.2509C14.0822 9.71105 13.9214 9.64014 13.8072 9.51594L12.4872 8.06094C12.4133 7.97957 12.3008 7.94515 12.194 7.97124C12.0872 7.99733 12.0032 8.07975 11.9751 8.18604L11.1408 11.348C11.1109 11.4617 11.15 11.5824 11.241 11.6567L13.431 13.4465C13.5452 13.5409 13.6217 13.6731 13.6464 13.8191L14.2464 17.7191C14.27 17.8781 14.2292 18.0399 14.1332 18.1687C14.0371 18.2975 13.8937 18.3828 13.7346 18.4055C13.707 18.4101 13.679 18.4121 13.6509 18.4115C13.3556 18.4102 13.1044 18.1957 13.0566 17.9042L12.5109 14.3429C12.4997 14.2696 12.4616 14.203 12.4041 14.156L10.3191 12.4523C10.2415 12.389 10.1374 12.3686 10.0416 12.3979C9.94578 12.4273 9.87095 12.5025 9.84213 12.5984L8.22483 17.9834C8.12922 18.3003 7.79513 18.4799 7.47813 18.3848C7.32601 18.3394 7.19825 18.2353 7.1231 18.0954C7.04794 17.9556 7.03158 17.7916 7.07763 17.6396L10.2546 7.04664C10.2846 6.94671 10.2604 6.83841 10.1909 6.76063C10.1214 6.68285 10.0165 6.64677 9.91383 6.66534L8.47083 6.92634C8.38358 6.94216 8.3078 6.99575 8.26383 7.07274L7.27053 8.81154C7.17131 9.01128 6.9695 9.13952 6.74653 9.14448C6.52356 9.14945 6.31623 9.03034 6.20822 8.83521C6.10021 8.64009 6.10934 8.40116 6.23193 8.21484L7.43193 6.11214C7.51869 5.95957 7.6689 5.85356 7.84173 5.82294L11.1192 5.22504Z" stroke="#3E5EFF" stroke-width="0.32" mask="url(#path-1-outside-1_16_83)"/>
</svg>
