<svg width="18" height="18" viewBox="0 0 18 18" fill="none" xmlns="http://www.w3.org/2000/svg">
<path fill-rule="evenodd" clip-rule="evenodd" d="M2 3.66269C2 2.74441 2.74441 2 3.66269 2H14.7473C15.6656 2 16.41 2.74442 16.41 3.66269V9.20498C16.41 9.51107 16.1618 9.75921 15.8557 9.75921C15.5497 9.75921 15.3015 9.51107 15.3015 9.20498V3.66269C15.3015 3.35659 15.0534 3.10846 14.7473 3.10846H3.66269C3.3566 3.10846 3.10846 3.3566 3.10846 3.66269V14.7473C3.10846 15.0534 3.35659 15.3015 3.66269 15.3015H9.20498C9.51107 15.3015 9.75921 15.5497 9.75921 15.8557C9.75921 16.1618 9.51107 16.41 9.20498 16.41H3.66269C2.74442 16.41 2 15.6656 2 14.7473V3.66269Z" fill="#1E2328" fill-opacity="0.6"/>
<path fill-rule="evenodd" clip-rule="evenodd" d="M12.1613 10.4981C11.243 10.4981 10.4986 11.2425 10.4986 12.1608C10.4986 13.079 11.243 13.8235 12.1613 13.8235C13.0795 13.8235 13.824 13.079 13.824 12.1608C13.824 11.2425 13.0795 10.4981 12.1613 10.4981ZM9.39014 12.1608C9.39014 10.6303 10.6308 9.38965 12.1613 9.38965C13.6918 9.38965 14.9324 10.6303 14.9324 12.1608C14.9324 13.6913 13.6918 14.9319 12.1613 14.9319C10.6308 14.9319 9.39014 13.6913 9.39014 12.1608Z" fill="#1E2328" fill-opacity="0.6"/>
<path fill-rule="evenodd" clip-rule="evenodd" d="M13.5756 13.2926C13.7668 13.0536 14.1155 13.0149 14.3545 13.206L16.202 14.684C16.441 14.8752 16.4797 15.224 16.2886 15.463C16.0973 15.7021 15.7486 15.7408 15.5095 15.5495L13.6621 14.0716C13.4231 13.8804 13.3843 13.5316 13.5756 13.2926Z" fill="#1E2328" fill-opacity="0.6"/>
<path fill-rule="evenodd" clip-rule="evenodd" d="M4.9563 6.24905C4.9563 5.94296 5.20444 5.69482 5.51053 5.69482H12.9003C13.2063 5.69482 13.4545 5.94296 13.4545 6.24905C13.4545 6.55514 13.2063 6.80328 12.9003 6.80328H5.51053C5.20444 6.80328 4.9563 6.55514 4.9563 6.24905Z" fill="#1E2328" fill-opacity="0.6"/>
<path fill-rule="evenodd" clip-rule="evenodd" d="M4.9563 9.20499C4.9563 8.8989 5.20444 8.65076 5.51053 8.65076H8.46642C8.7725 8.65076 9.02065 8.8989 9.02065 9.20499C9.02065 9.51107 8.7725 9.75922 8.46642 9.75922H5.51053C5.20444 9.75922 4.9563 9.51107 4.9563 9.20499Z" fill="#1E2328" fill-opacity="0.6"/>
</svg>
